<?xml version="1.0" encoding="utf-8"?>
<!-- Svg Vector Icons : http://www.onlinewebfonts.com/icon -->
<!DOCTYPE svg PUBLIC "-//W3C//DTD SVG 1.1//EN" "http://www.w3.org/Graphics/SVG/1.1/DTD/svg11.dtd">
<svg version="1.1" xmlns="http://www.w3.org/2000/svg" xmlns:xlink="http://www.w3.org/1999/xlink" x="0px" y="0px" viewBox="0 0 1000 1000" enable-background="new 0 0 1000 1000" xml:space="preserve">
<metadata> Svg Vector Icons : http://www.onlinewebfonts.com/icon </metadata>
<g><path d="M500,852.8c122.5,0,220.5-53.9,294-156.8c0-44.1-34.3-78.4-102.9-107.8c-68.6-29.4-132.3-44.1-191.1-44.1c-58.8,0-122.5,14.7-191.1,44.1C240.3,617.6,206,651.9,206,696C279.5,798.9,377.5,852.8,500,852.8z M500,157c-39.2,0-73.5,14.7-102.9,44.1C367.7,230.5,353,264.8,353,304s14.7,73.5,44.1,102.9C426.5,436.3,460.8,451,500,451c39.2,0,73.5-14.7,102.9-44.1C632.3,377.5,647,343.2,647,304s-14.7-73.5-44.1-102.9C578.4,171.7,544.1,157,500,157z M500,10c137.2,0,249.9,49,347.9,142.1c98,98,142.1,210.7,142.1,347.9c0,137.2-49,249.9-142.1,347.9C749.9,945.9,637.2,990,500,990c-137.2,0-249.9-49-347.9-142.1C54.1,749.9,10,637.2,10,500c0-137.2,49-249.9,142.1-347.9C250.1,59,367.7,10,500,10z"/></g>
</svg>